<?xml version="1.0" encoding="UTF-8" standalone="no"?>
<!-- Generator: Adobe Illustrator 25.2.0, SVG Export Plug-In . SVG Version: 6.00 Build 0)  -->

<svg
   xmlns:dc="http://purl.org/dc/elements/1.1/"
   xmlns:cc="http://creativecommons.org/ns#"
   xmlns:rdf="http://www.w3.org/1999/02/22-rdf-syntax-ns#"
   xmlns:svg="http://www.w3.org/2000/svg"
   xmlns="http://www.w3.org/2000/svg"
   xmlns:sodipodi="http://sodipodi.sourceforge.net/DTD/sodipodi-0.dtd"
   xmlns:inkscape="http://www.inkscape.org/namespaces/inkscape"
   version="1.1"
   id="Calque_1"
   x="0px"
   y="0px"
   viewBox="0 0 381.79998 87.292849"
   xml:space="preserve"
   sodipodi:docname="spinalcom_logo.svg"
   inkscape:version="0.92.1 r15371"
   width="381.79999"
   height="87.292847"><metadata
     id="metadata170"><rdf:RDF><cc:Work
         rdf:about=""><dc:format>image/svg+xml</dc:format><dc:type
           rdf:resource="http://purl.org/dc/dcmitype/StillImage" /><dc:title></dc:title></cc:Work></rdf:RDF></metadata><defs
     id="defs168" /><sodipodi:namedview
     pagecolor="#ffffff"
     bordercolor="#666666"
     borderopacity="1"
     objecttolerance="10"
     gridtolerance="10"
     guidetolerance="10"
     inkscape:pageopacity="0"
     inkscape:pageshadow="2"
     inkscape:window-width="2560"
     inkscape:window-height="1376"
     id="namedview166"
     showgrid="false"
     inkscape:zoom="1.6095555"
     inkscape:cx="129.0756"
     inkscape:cy="-48.974669"
     inkscape:window-x="1920"
     inkscape:window-y="27"
     inkscape:window-maximized="1"
     inkscape:current-layer="Calque_1"
     fit-margin-top="0"
     fit-margin-left="0"
     fit-margin-right="0"
     fit-margin-bottom="0" /><style
     type="text/css"
     id="style87">
	
</style><path
     class="st0"
     d="m 29.4,50.781743 c -3.6,-2.7 -6.6,-5.6 -11.1,-10.2 -5.6,-5.7 -6.2,-10.1 5,-20.9 11.1,-10.8999998 15.5,-10.1999998 21.1,-4.5 4.2,4.3 6.4,6.7 9.4,10.4 l 0.1,0.1 6.3,-6.9 c -2.1,-3.2 -4.2,-6 -8.7,-10.4999998 -6,-6.1 -11.5,-8.79999999 -17.2,-8.19999999 -5.6,0.6 -11.5,3.99999999 -19,11.39999979 -7.5,7.3 -11.2,13.1 -11.8,18.8 -0.7,5.7 1.8,11.2 7.8,17.3 5,5.1 8.4,7.9 12.8,10.5 l 6.1,-6.7 z"
     id="path89"
     inkscape:connector-curvature="0"
     style="fill:#bfbfbf" /><path
     d="m 48.7,38.881743 c -5.1,-4.9 -8.7,-7.6 -13.2,-10 l -6.1,6.7 1.1,0.7 c 3.6,2.6 6.8,5.4 11.4,9.8 3.3,3.2 4.5,5.8 4,8.7 -0.6,3.2 -3.1,7 -8.2,12.4 -5.1,5.4 -8.8,8.1 -12,8.8 -2.9,0.7 -5.6,-0.4 -8.9,-3.6 -4.4,-4.2 -6.6,-6.5 -9.7,-10.1 l -1,-1.1 -6.1,6.7 c 2.5,3.8 4.7,6.6 10,11.7 5.7,5.4 10.9,7.9 16.1,7.7 0.5,0 0.9,-0.1 1.4,-0.1 5.6,-0.7 11.4,-4.5 18.6,-12.1 7.2,-7.6 10.7,-13.5 11.1,-19.2 0.4,-5.7 -2.3,-11.1 -8.5,-17"
     id="path91"
     style="fill:#bfbfbf"
     inkscape:connector-curvature="0" /><path
     d="m 100.3,25.781743 -0.3,4.2 c -3.4,-0.1 -7.7,-0.3 -11.4,-0.3 -5.4,0 -7.5,0.2 -7.5,5.5 0,4.1 1.4,5.2 4.8,6 l 7.9,2.2 c 6.1,1.7 8,5.3 8,11.2 0,9.1 -4,10.9 -13.5,10.9 -2.5,0 -6.9,-0.1 -12.5,-1.1 l 0.4,-4.2 c 7.2,0.2 9.2,0.3 12.2,0.3 5.8,-0.1 7.5,-0.9 7.5,-5.9 0,-4.3 -1.5,-5.2 -4.7,-6.1 l -8,-2.2 c -5.8,-1.6 -7.9,-5.2 -7.9,-11.2 0,-9.2 4.1,-10.4 13,-10.4 3.8,-0.1 8,0.1 12,1.1"
     id="path93"
     style="fill:#bfbfbf"
     inkscape:connector-curvature="0" /><path
     d="m 124,44.881743 c 5.5,-0.1 7.3,-1.6 7.3,-7.6 0,-6 -1.8,-7.6 -7.3,-7.6 -3,0 -5.7,0 -7.9,0.1 v 15.1 z m 13.1,-7.6 c 0,9.9 -3.2,12.6 -12.3,12.6 -3.2,0 -6.3,-0.2 -8.7,-0.5 v 15.5 h -5.7 v -39.6 c 4.4,-0.5 7.3,-0.5 13.8,-0.5 9.7,0 12.9,2.7 12.9,12.5"
     id="path95"
     style="fill:#bfbfbf"
     inkscape:connector-curvature="0" /><rect
     x="144.40001"
     y="25.281742"
     width="5.6999998"
     height="39.599998"
     id="rect97"
     style="fill:#bfbfbf" /><path
     d="m 191.8,62.581743 c 0,1.5 -0.7,2.2 -2.1,2.2 h -5.5 c -1.3,0 -2,-0.6 -2.5,-1.8 l -12.3,-27 c -0.7,-1.5 -1.9,-3.8 -2.4,-5.5 h -0.8 c 0.2,1.8 0.3,3.7 0.3,5.5 v 28.7 h -5.7 v -37.2 c 0,-1.5 0.8,-2.2 2.2,-2.2 h 5.3 c 1.3,0 2,0.6 2.5,1.8 l 12,26.3 c 0.7,1.6 1.9,3.9 2.8,5.9 h 0.9 c -0.2,-2.1 -0.3,-4.1 -0.3,-6.1 v -27.9 h 5.7 v 37.3 z"
     id="path99"
     style="fill:#bfbfbf"
     inkscape:connector-curvature="0" /><path
     d="m 216.7,32.881743 c -0.3,-1 -0.7,-2.2 -1,-3.2 h -1.5 l -0.9,3.2 -4.6,15 h 12.7 z m -9.6,20 -3.7,11.9 h -5.8 l 12.4,-38 c 0.3,-1 1.1,-1.6 2.1,-1.6 h 5.9 c 1,0 1.8,0.6 2.1,1.6 l 12.5,38 h -6 l -3.7,-11.9 z"
     id="path101"
     style="fill:#bfbfbf"
     inkscape:connector-curvature="0" /><path
     d="m 244.4,56.381743 c 0,2.7 1,3.7 3.6,3.7 h 14.1 l 0.3,4.4 c -4.9,0.5 -10.2,0.5 -15.3,0.5 -6.3,0 -8.4,-3.3 -8.4,-7.8 v -31.9 h 5.7 z"
     id="path103"
     style="fill:#bfbfbf"
     inkscape:connector-curvature="0" /><path
     class="st0"
     d="m 293.2,25.681743 -0.6,4.4 c -3.4,-0.3 -5.7,-0.5 -10.4,-0.5 -7.3,0 -9.6,3.7 -9.6,15.4 0,11.6 2.4,15.4 9.6,15.4 4.9,0 8,-0.1 11.2,-0.6 l 0.6,4.4 c -3.4,1 -6.5,1.4 -11.8,1.4 -11.5,0 -15.7,-5.4 -15.7,-20.5 0,-15.1 4.1,-20.5 15.7,-20.5 5.1,0 7.7,0.3 11,1.1"
     id="path105"
     inkscape:connector-curvature="0"
     style="fill:#bfbfbf" /><path
     class="st0"
     d="m 305.3,45.081743 c 0,11.7 2.4,15.4 9.8,15.4 7.5,0 9.8,-3.7 9.8,-15.4 0,-11.7 -2.4,-15.4 -9.8,-15.4 -7.5,-0.1 -9.8,3.7 -9.8,15.4 m 25.6,0 c 0,15.5 -4.1,20.5 -15.8,20.5 -11.6,0 -15.8,-5 -15.8,-20.5 0,-15.5 4.1,-20.5 15.8,-20.5 11.6,-0.1 15.8,4.9 15.8,20.5"
     id="path107"
     inkscape:connector-curvature="0"
     style="fill:#bfbfbf" /><path
     class="st0"
     d="m 377.8,25.281743 c 1.5,0 2.3,0.9 2.4,2.4 l 1.6,37.2 h -5.7 l -1.4,-34.8 h -1.1 l -8,28.2 c -0.3,1.3 -1.1,2 -2.5,2 h -5 c -1.3,0 -2.2,-0.6 -2.5,-2 l -8.1,-28.2 h -1.1 l -1.3,34.8 h -5.7 l 1.5,-37.2 c 0.1,-1.5 0.9,-2.4 2.4,-2.4 h 6.4 c 1.3,0 2,0.7 2.4,2 l 6.7,23.2 c 0.5,1.8 0.9,3.6 1.3,5.3 h 1 c 0.4,-1.8 0.8,-3.5 1.4,-5.4 l 6.7,-23.1 c 0.4,-1.3 1.1,-2 2.5,-2 z"
     id="path109"
     inkscape:connector-curvature="0"
     style="fill:#bfbfbf" /></svg>